Coordinates
version=1
nRows=23
nColumns=23
inDegrees=yes

Units are S.I. units (second, meters, Newtons, ...)
If the header above contains a line with 'inDegrees', this indicates whether rotational values are in degrees (yes) or radians (no).

endheader
time	pelvis_tilt	pelvis_list	pelvis_rotation	pelvis_tx	pelvis_ty	pelvis_tz	hip_flexion_r	hip_adduction_r	hip_rotation_r	knee_angle_r	knee_angle_r_beta	ankle_angle_r	subtalar_angle_r	mtp_angle_r	hip_flexion_l	hip_adduction_l	hip_rotation_l	knee_angle_l	knee_angle_l_beta	ankle_angle_l	subtalar_angle_l	mtp_angle_l
      7.50000000	    -13.69397199	     -0.78079047	     -5.36602556	      2.25174438	      1.04649527	      1.01404571	     41.16503471	      0.99742514	    -16.13992668	     26.41486917	      0.46102644	      4.46026593	      7.81917398	      0.00000000	      0.96026385	     -8.74462100	    -11.43831976	     88.77300372	      1.54938120	    -15.93972954	    -14.64173762	      0.00000000
      7.50666667	    -13.95823874	     -0.87731818	     -5.71603967	      2.25024820	      1.04029037	      1.01433675	     41.47819138	      1.24345242	    -15.26548366	     28.95721810	      0.50539880	      5.17695448	      5.93342412	      0.00000000	      2.89415751	     -9.22930501	    -11.46481302	     92.48161589	      1.61410869	    -15.58687930	    -15.89548580	      0.00000000
      7.51333333	    -14.50290752	     -0.81387968	     -6.06434887	      2.24829974	      1.03368438	      1.01473229	     42.16813199	      1.49331027	    -13.93308449	     31.74581289	      0.55406896	      6.15805098	      3.60831570	      0.00000000	      5.30042034	     -9.59690344	    -11.44012034	     96.10489236	      1.67734680	    -15.16693769	    -16.97418201	      0.00000000
      7.52000000	    -15.12250253	     -0.82641099	     -6.35321977	      2.24605679	      1.02719171	      1.01517590	     42.86730196	      1.95911140	    -12.29500155	     34.52850562	      0.60263611	      7.42451118	      0.70145885	      0.00000000	      7.93320612	    -10.08237113	    -11.27408233	     99.59722413	      1.73829949	    -14.57497628	    -17.88229121	      0.00000000
      7.52666667	    -15.71378331	     -0.86459241	     -6.58182211	      2.24366760	      1.02093050	      1.01571198	     43.47233522	      2.36726439	    -11.01890979	     37.40015315	      0.65275581	      9.43017852	     -1.26095339	      0.00000000	     10.66626225	    -10.63577397	    -11.00236949	    102.91131980	      1.79614137	    -13.82652476	    -18.29386767	      0.00000000
      7.53333333	    -16.62840386	     -0.79546887	     -6.70976496	      2.24075997	      1.01468502	      1.01629023	     44.30554137	      2.83976230	     -9.43646286	     40.04918235	      0.69899009	     11.28924259	     -3.68979458	      0.00000000	     13.99538006	    -11.07709641	    -10.52301727	    106.07596836	      1.85137491	    -12.96209010	    -18.44474167	      0.00000000
      7.54000000	    -17.42909737	     -0.86390750	     -6.74728403	      2.23782931	      1.00924462	      1.01691225	     44.74900242	      3.40943173	     -8.02359082	     42.34349333	      0.73903338	     13.37389579	     -5.82621783	      0.00000000	     17.34266832	    -11.64127730	     -9.84744606	    108.96273937	      1.90175856	    -12.02148049	    -18.25508249	      0.00000000
      7.54666667	    -18.23679057	     -0.93657656	     -6.70813539	      2.23483786	      1.00448293	      1.01746752	     44.95574390	      3.88073152	     -6.88294317	     44.28872840	      0.77298413	     15.57320875	     -7.31749032	      0.00000000	     20.86349058	    -12.15048684	     -9.02971389	    111.55109941	      1.94693397	    -10.99676070	    -17.69063593	      0.00000000
      7.55333333	    -18.98975435	     -1.07766330	     -6.54455025	      2.23188117	      1.00064017	      1.01786791	     44.79996130	      4.30916924	     -5.92821836	     45.76216542	      0.79870046	     17.70865291	     -8.52773228	      0.00000000	     24.48889909	    -12.60901671	     -8.00737641	    113.80011675	      1.98618673	     -9.95484948	    -16.90640131	      0.00000000
      7.56000000	    -19.62519793	     -1.28333198	     -6.28552295	      2.22910136	      0.99783660	      1.01805545	     44.21447494	      4.62586845	     -5.27828429	     46.76810756	      0.81625746	     19.76721665	     -9.26331781	      0.00000000	     28.10672012	    -12.99019622	     -6.85729355	    115.65912892	      2.01863261	     -8.96623660	    -15.96483669	      0.00000000
      7.56666667	    -20.12469359	     -1.51282065	     -5.92107319	      2.22662307	      0.99609641	      1.01797471	     43.19052145	      4.78528996	     -4.90276749	     47.30281444	      0.82558986	     21.65948460	     -9.60800018	      0.00000000	     31.65654681	    -13.20542980	     -5.62834017	    117.09095944	      2.04362277	     -8.02117073	    -14.94464585	      0.00000000
      7.57333333	    -20.46213143	     -1.77421054	     -5.46456478	      2.22452462	      0.99549125	      1.01761580	     41.71227997	      4.79529667	     -4.83097131	     47.37730446	      0.82688995	     23.32172988	     -9.53310504	      0.00000000	     35.05892189	    -13.26040074	     -4.38318416	    118.06931057	      2.06069822	     -7.18328729	    -13.94073152	      0.00000000
      7.58000000	    -20.62755463	     -2.00236743	     -4.93597314	      2.22292157	      0.99597742	      1.01703016	     39.80219431	      4.61990695	     -5.02448606	     47.03092451	      0.82084448	     24.67256337	     -9.04622111	      0.00000000	     38.22908879	    -13.10124822	     -3.22623361	    118.58137046	      2.06963535	     -6.43770947	    -12.99281621	      0.00000000
      7.58666667	    -20.58747328	     -2.15546321	     -4.32480954	      2.22189456	      0.99756816	      1.01619095	     37.44835896	      4.27701929	     -5.36531642	     46.28469727	      0.80782036	     25.71000308	     -8.52760251	      0.00000000	     41.06156503	    -12.68100212	     -2.22186182	    118.59793001	      2.06992436	     -5.88406324	    -12.36139339	      0.00000000
      7.59333333	    -20.39432636	     -2.22564758	     -3.68504952	      2.22153520	      1.00011967	      1.01517527	     34.73305723	      3.61832927	     -6.30713730	     45.22171500	      0.78926782	     26.45756652	     -6.52111650	      0.00000000	     43.54097674	    -12.08552310	     -1.44908572	    118.15604466	      2.06221201	     -5.23333509	    -11.52074215	      0.00000000
      7.60000000	    -20.06434902	     -2.20270106	     -2.99689546	      2.22173855	      1.00359712	      1.01405152	     31.69872713	      2.90842952	     -7.25165742	     43.79360793	      0.76434265	     26.65074288	     -4.90105581	      0.00000000	     45.66428721	    -11.30257104	     -0.88403436	    117.25510391	      2.04648763	     -4.72070870	    -10.99036947	      0.00000000
      7.60666667	    -19.95522390	     -2.07962997	     -2.28915913	      2.22223589	      1.00736350	      1.01293735	     28.79884326	      2.24204146	     -8.04417828	     42.06408508	      0.73415678	     26.07317095	     -3.99325849	      0.00000000	     47.83671231	    -10.36910727	     -0.49429960	    115.97497719	      2.02414520	     -4.32548204	    -10.69101576	      0.00000000
      7.61333333	    -19.20214534	     -1.81434836	     -1.61547926	      2.22381531	      1.01260202	      1.01170700	     25.06972914	      1.20460978	     -9.58811712	     40.15952258	      0.70091590	     25.53894752	     -1.11341454	      0.00000000	     48.92538235	     -9.34586546	     -0.46885464	    114.21526849	      1.99343249	     -3.70996925	    -10.26833758	      0.00000000
      7.62000000	    -18.83700047	     -1.52944797	     -0.90186193	      2.22543021	      1.01767497	      1.01052165	     21.72552367	      0.37393918	    -10.90722242	     38.01589845	      0.66350260	     24.03026747	      0.60840211	      0.00000000	     50.28645143	     -8.25556585	     -0.46260642	    112.18139268	      1.95793466	     -3.19569513	    -10.06369232	      0.00000000
      7.62666667	    -18.48083826	     -1.10908832	     -0.26770250	      2.22742138	      1.02306782	      1.00947705	     18.39952691	     -0.50005623	    -12.26307923	     35.77677570	      0.62442253	     21.87581242	      2.42903373	      0.00000000	     51.38074014	     -7.13159192	     -0.70435756	    109.81874351	      1.91669865	     -2.59926935	     -9.83559613	      0.00000000
      7.63333333	    -18.30856988	     -0.66376316	      0.30466468	      2.22966750	      1.02841095	      1.00857836	     15.29918958	     -1.27440375	    -13.59294425	     33.44566990	      0.58373706	     19.06023430	      3.87214043	      0.00000000	     52.45854469	     -6.06152303	     -1.05492992	    107.19156981	      1.87084582	     -2.00648711	     -9.69044611	      0.00000000
      7.64000000	    -18.10825538	     -0.15213875	      0.79648493	      2.23218161	      1.03391574	      1.00786444	     12.23693356	     -2.01179253	    -14.89053023	     31.09286721	      0.54267291	     15.75060652	      5.31307393	      0.00000000	     53.26596791	     -5.03498572	     -1.55197063	    104.30194596	      1.82041237	     -1.37696610	     -9.58514797	      0.00000000
      7.64666667	    -18.09285643	      0.35642362	      1.25167308	      2.23473569	      1.03919858	      1.00728696	      9.47659791	     -2.61882870	    -16.04040841	     28.75042102	      0.50178951	     11.88560828	      6.22909510	      0.00000000	     54.10189237	     -4.05901646	     -2.08669300	    101.19299025	      1.76615086	     -0.82212885	     -9.64939230	      0.00000000
